<svg version="1.1" id="Layer_1" xmlns="http://www.w3.org/2000/svg" xmlns:xlink="http://www.w3.org/1999/xlink" x="0px" y="0px"
	 width="100%" viewBox="0 0 403 191" enable-background="new 0 0 403 191" xml:space="preserve">
<path fill="#FEFEFE" opacity="1.000000" stroke="none" 
	d="
M376.000000,192.000000 
	C250.719208,192.000000 125.938408,192.000000 1.078808,192.000000 
	C1.078808,128.412750 1.078808,64.825378 1.078808,1.119001 
	C135.333267,1.119001 269.666626,1.119001 403.994110,1.119001 
	C403.994110,64.728119 403.994110,128.364059 403.991150,192.000000 
	C394.825470,192.000000 385.662750,192.000000 376.000000,192.000000 
M340.750336,102.955856 
	C343.008942,97.984062 345.267517,93.012268 347.469727,88.164581 
	C345.556091,88.164581 342.889648,88.164581 341.301941,88.164581 
	C341.531219,90.293037 342.194672,92.326363 341.843262,94.165840 
	C341.328400,96.861160 340.086884,99.417664 338.814575,102.660637 
	C338.369110,103.450920 337.923645,104.241203 336.918976,106.023560 
	C336.078278,99.273750 329.394257,94.882736 333.043091,88.185913 
	C328.989532,88.185913 324.416199,88.185913 320.724243,88.185913 
	C325.009094,97.748611 329.368561,107.477760 334.300110,118.483696 
	C336.619995,112.530884 338.398987,107.965996 340.750336,102.955856 
M201.234314,92.937225 
	C201.085464,91.357224 200.936615,89.777222 200.783875,88.155930 
	C197.073944,88.155930 193.658493,88.155930 190.117126,88.155930 
	C193.478119,92.377304 193.612717,111.380974 190.461487,115.796295 
	C194.981415,115.796295 199.521988,115.796295 204.332321,115.796295 
	C200.092133,112.626228 199.587585,102.005951 203.695694,93.802010 
	C205.013580,93.930069 206.332443,94.169388 207.649109,94.157883 
	C209.278229,94.143646 211.981094,94.411835 212.311478,93.687477 
	C213.016724,92.141296 213.077164,89.693954 212.256180,88.281876 
	C211.747620,87.407150 208.693375,87.027077 207.561920,87.712547 
	C205.444641,88.995270 203.894485,91.214096 201.234314,92.937225 
M254.138474,89.700836 
	C256.123657,91.941032 258.108856,94.181229 260.626312,97.022057 
	C260.443848,93.356163 260.289276,90.250572 260.181061,88.076477 
	C257.932281,88.076477 256.448181,88.076477 254.327454,87.643639 
	C249.680115,85.975929 246.117523,87.411148 243.918930,91.701653 
	C241.708008,96.016235 243.083801,99.818283 246.502472,102.863091 
	C248.848083,104.952179 251.769775,106.459709 253.845108,108.758751 
	C254.841553,109.862595 254.474762,112.197044 254.725327,113.974197 
	C253.060593,114.026360 250.873199,114.771782 249.836868,113.990463 
	C247.473969,112.208977 245.675262,109.679153 243.313217,107.086700 
	C243.548157,110.556816 243.757980,113.656029 243.895981,115.694389 
	C246.252258,115.882767 247.958313,115.726143 249.471375,116.193840 
	C254.448669,117.732361 258.403046,116.577950 260.690460,112.648354 
	C263.128143,108.460602 262.434967,103.894646 258.604706,100.528214 
	C256.368286,98.562622 253.745209,97.031570 251.549362,95.027519 
	C250.456863,94.030464 249.934555,92.408630 249.154312,91.069427 
	C250.676102,90.429604 252.197876,89.789772 254.138474,89.700836 
M19.388515,116.013000 
	C21.100630,116.013000 22.812744,116.013000 24.110966,116.013000 
	C22.451399,114.462990 19.493031,113.006866 19.418375,111.415451 
	C18.975071,101.965584 19.199453,92.484383 19.199453,83.013718 
	C19.499832,82.986221 19.800209,82.958725 20.100588,82.931229 
	C25.022871,93.989639 29.945156,105.048058 35.278862,117.030769 
	C40.588444,104.322578 45.390720,92.828583 50.192993,81.334587 
	C50.986984,90.575157 50.811668,99.547440 51.068428,108.507355 
	C51.179897,112.397346 50.467209,115.138428 46.194660,115.805923 
	C52.751560,115.805923 59.308456,115.805923 65.865356,115.805923 
	C60.822735,115.490494 60.735657,112.088791 60.788200,108.307922 
	C60.906235,99.814194 60.993008,91.312927 60.751415,82.824432 
	C60.637825,78.833466 61.310711,75.888931 65.795143,75.114281 
	C60.650600,75.114281 55.506054,75.114281 50.302967,75.114281 
	C46.654781,83.945183 43.042458,92.689285 39.028111,102.406532 
	C35.264023,93.526474 32.047226,85.733200 28.610926,78.037941 
	C28.057245,76.798027 26.584282,75.214050 25.435591,75.127655 
	C20.946096,74.789993 16.416182,74.989761 11.901292,74.989761 
	C16.311483,75.826866 16.983671,78.583412 16.891651,82.381500 
	C16.689976,90.705406 16.632402,99.044197 16.912855,107.363533 
	C17.051426,111.474121 16.371225,114.594460 12.016974,116.013000 
	C14.178102,116.013000 16.339230,116.013000 19.388515,116.013000 
M183.805069,90.963509 
	C186.826294,83.018547 184.060349,76.925262 175.728104,75.917603 
	C167.915207,74.972748 159.898239,75.715279 151.971054,75.715279 
	C156.576721,75.710823 157.095001,78.681442 157.035965,82.421722 
	C156.902145,90.901878 156.975250,99.385658 157.002426,107.867836 
	C157.014496,111.633095 157.467270,115.625725 151.881882,115.668449 
	C158.392807,115.668449 164.903748,115.668449 170.207687,115.668449 
	C169.049332,114.243683 166.641769,112.609688 166.362915,110.669724 
	C165.736481,106.311615 166.166580,101.801651 166.166580,97.255669 
	C172.623367,96.644676 179.093430,97.315491 183.805069,90.963509 
M93.157646,89.515083 
	C93.157646,85.408379 93.157646,81.301682 93.157646,77.434753 
	C100.724258,75.534401 103.877014,79.649940 106.166763,85.367462 
	C106.166763,81.980682 106.166763,78.593903 106.166763,75.285332 
	C93.987137,75.285332 82.081718,75.285332 70.273575,75.285332 
	C70.273575,78.926926 70.273575,82.275368 70.273575,86.174568 
	C74.729530,76.995644 75.662704,76.395554 83.560936,77.526810 
	C83.560936,87.742928 83.560112,98.015572 83.561371,108.288216 
	C83.561821,111.931641 83.450874,115.494476 78.454506,115.684601 
	C84.976028,115.684601 91.497543,115.684601 98.019058,115.684601 
	C93.918068,115.115623 92.952888,112.713768 93.094521,108.975792 
	C93.327431,102.828926 93.157646,96.666801 93.157646,89.515083 
M127.501022,116.003708 
	C133.598953,116.003708 139.696899,116.003708 145.780029,116.003708 
	C146.257416,110.991127 146.667191,106.688217 147.076981,102.385307 
	C144.005890,110.007782 139.819656,114.960861 130.699097,114.146744 
	C126.675209,113.787560 125.016266,112.745796 125.104446,108.617729 
	C125.285835,100.126945 125.263222,91.627747 125.114517,83.135689 
	C125.040421,78.904701 125.270035,75.247536 130.869507,75.194214 
	C124.068886,75.194214 117.268265,75.194214 109.933510,75.194214 
	C115.417534,77.001137 115.543289,77.152611 115.554932,82.682945 
	C115.572815,91.177567 115.484146,99.673233 115.593857,108.166473 
	C115.643227,111.987793 115.440170,115.396034 110.530861,116.003708 
	C115.854713,116.003708 121.178566,116.003708 127.501022,116.003708 
M354.320282,112.022469 
	C360.366241,119.033516 369.750793,118.735550 372.581085,111.442673 
	C364.687012,114.636253 359.539703,109.865829 360.531219,99.929291 
	C365.284485,99.929291 370.073303,99.929291 374.863098,99.929291 
	C374.679199,92.773857 371.630127,88.283081 366.396484,87.154793 
	C361.613068,86.123581 356.223419,88.951035 353.786469,94.051750 
	C351.043854,99.792336 351.197266,105.608421 354.320282,112.022469 
M273.836273,116.018028 
	C281.158356,118.176842 285.845276,116.578934 287.478424,111.366997 
	C279.959595,114.738007 275.306183,110.592438 275.162140,99.951828 
	C280.075104,99.951828 284.990540,99.951828 289.913910,99.951828 
	C289.586517,92.940315 287.038391,88.908562 282.236816,87.389435 
	C277.856262,86.003517 272.812592,88.071304 269.666565,92.410820 
	C265.510010,98.144180 265.553375,111.564369 273.836273,116.018028 
M224.193726,104.762581 
	C224.074493,103.303925 223.955261,101.845261 223.792130,99.849770 
	C228.974823,99.849770 233.854904,99.849770 238.765579,99.849770 
	C238.027130,92.509232 235.585938,88.625107 230.842499,87.348213 
	C226.168900,86.090134 222.359009,87.860641 219.277222,91.339310 
	C214.443192,96.795914 214.458832,108.238976 219.242493,113.587540 
	C223.858978,118.749222 233.011658,118.013550 235.706207,112.264236 
	C228.806183,113.620865 227.398239,112.785927 224.193726,104.762581 
M386.726227,94.222404 
	C386.525726,92.802116 386.325226,91.381828 386.124695,89.961540 
	C387.640015,89.900017 389.696320,89.184990 390.565216,89.904305 
	C392.819672,91.770630 394.551666,94.268028 397.027039,97.132477 
	C396.741730,93.272972 396.517090,90.234314 396.359070,88.096558 
	C394.393951,88.096558 392.904572,88.453194 391.680542,88.034363 
	C386.577484,86.288216 382.616211,87.258110 380.377777,91.080315 
	C378.135620,94.908882 378.954529,99.479362 382.690979,102.759430 
	C384.935455,104.729752 387.729218,106.160912 389.654541,108.374893 
	C390.764099,109.650803 390.635468,112.003479 391.064178,113.871483 
	C389.119385,113.814590 386.679199,114.468819 385.343140,113.538086 
	C383.212341,112.053680 381.816101,109.514786 379.829163,107.078300 
	C379.829163,108.907425 379.790161,110.495903 379.840271,112.081566 
	C379.889282,113.632858 380.029175,115.181290 380.065948,115.750900 
	C382.416840,115.916634 384.158569,115.731621 385.698212,116.204552 
	C390.706909,117.743080 394.618622,116.600693 396.919189,112.637436 
	C399.310028,108.518570 398.592041,103.758209 394.825531,100.491837 
	C392.448395,98.430367 389.806030,96.674728 386.726227,94.222404 
M300.527130,87.992554 
	C298.484253,87.992554 296.441406,87.992554 293.950195,87.992554 
	C297.948669,92.067429 297.950073,111.821449 294.332245,115.852463 
	C299.123871,115.852463 303.817566,115.852463 308.519073,115.852463 
	C307.394958,114.637886 305.466797,113.514862 305.466461,112.391258 
	C305.464813,106.957733 305.619659,101.466713 306.468048,96.114807 
	C306.887604,93.467918 308.994995,92.076782 312.126678,94.142654 
	C313.154938,94.820953 316.120422,94.373062 316.705627,93.470825 
	C317.502380,92.242500 317.502991,89.608223 316.651245,88.470505 
	C315.917969,87.490997 313.149963,87.031586 311.923523,87.638786 
	C309.564331,88.806778 307.659302,90.892143 305.311615,92.804123 
	C305.198547,91.128838 305.102844,89.710815 304.997589,88.151596 
	C303.725372,88.094910 302.576965,88.043732 300.527130,87.992554 
z"/>
<path fill="#070707" opacity="1.000000" stroke="none" 
	d="
M18.944437,116.013000 
	C16.339230,116.013000 14.178102,116.013000 12.016974,116.013000 
	C16.371225,114.594460 17.051426,111.474121 16.912855,107.363533 
	C16.632402,99.044197 16.689976,90.705406 16.891651,82.381500 
	C16.983671,78.583412 16.311483,75.826866 11.901292,74.989761 
	C16.416182,74.989761 20.946096,74.789993 25.435591,75.127655 
	C26.584282,75.214050 28.057245,76.798027 28.610926,78.037941 
	C32.047226,85.733200 35.264023,93.526474 39.028111,102.406532 
	C43.042458,92.689285 46.654781,83.945183 50.302967,75.114281 
	C55.506054,75.114281 60.650600,75.114281 65.795143,75.114281 
	C61.310711,75.888931 60.637825,78.833466 60.751415,82.824432 
	C60.993008,91.312927 60.906235,99.814194 60.788200,108.307922 
	C60.735657,112.088791 60.822735,115.490494 65.865356,115.805923 
	C59.308456,115.805923 52.751560,115.805923 46.194660,115.805923 
	C50.467209,115.138428 51.179897,112.397346 51.068428,108.507355 
	C50.811668,99.547440 50.986984,90.575157 50.192993,81.334587 
	C45.390720,92.828583 40.588444,104.322578 35.278862,117.030769 
	C29.945156,105.048058 25.022871,93.989639 20.100588,82.931229 
	C19.800209,82.958725 19.499832,82.986221 19.199453,83.013718 
	C19.199453,92.484383 18.975071,101.965584 19.418375,111.415451 
	C19.493031,113.006866 22.451399,114.462990 24.110966,116.013000 
	C22.812744,116.013000 21.100630,116.013000 18.944437,116.013000 
z"/>
<path fill="#040404" opacity="1.000000" stroke="none" 
	d="
M183.580353,91.278687 
	C179.093430,97.315491 172.623367,96.644676 166.166580,97.255669 
	C166.166580,101.801651 165.736481,106.311615 166.362915,110.669724 
	C166.641769,112.609688 169.049332,114.243683 170.207687,115.668449 
	C164.903748,115.668449 158.392807,115.668449 151.881882,115.668449 
	C157.467270,115.625725 157.014496,111.633095 157.002426,107.867836 
	C156.975250,99.385658 156.902145,90.901878 157.035965,82.421722 
	C157.095001,78.681442 156.576721,75.710823 151.971054,75.715279 
	C159.898239,75.715279 167.915207,74.972748 175.728104,75.917603 
	C184.060349,76.925262 186.826294,83.018547 183.580353,91.278687 
M166.164520,93.943108 
	C166.636414,94.292961 167.091919,94.920799 167.582718,94.949715 
	C172.546936,95.242210 175.141571,92.241501 175.217514,86.235535 
	C175.303284,79.451889 173.029358,77.088928 166.132294,77.240356 
	C166.132294,82.494873 166.132294,87.764763 166.164520,93.943108 
z"/>
<path fill="#020202" opacity="1.000000" stroke="none" 
	d="
M93.157646,90.013092 
	C93.157646,96.666801 93.327431,102.828926 93.094521,108.975792 
	C92.952888,112.713768 93.918068,115.115623 98.019058,115.684601 
	C91.497543,115.684601 84.976028,115.684601 78.454506,115.684601 
	C83.450874,115.494476 83.561821,111.931641 83.561371,108.288216 
	C83.560112,98.015572 83.560936,87.742928 83.560936,77.526810 
	C75.662704,76.395554 74.729530,76.995644 70.273575,86.174568 
	C70.273575,82.275368 70.273575,78.926926 70.273575,75.285332 
	C82.081718,75.285332 93.987137,75.285332 106.166763,75.285332 
	C106.166763,78.593903 106.166763,81.980682 106.166763,85.367462 
	C103.877014,79.649940 100.724258,75.534401 93.157646,77.434753 
	C93.157646,81.301682 93.157646,85.408379 93.157646,90.013092 
z"/>
<path fill="#030303" opacity="1.000000" stroke="none" 
	d="
M127.001724,116.003708 
	C121.178566,116.003708 115.854713,116.003708 110.530861,116.003708 
	C115.440170,115.396034 115.643227,111.987793 115.593857,108.166473 
	C115.484146,99.673233 115.572815,91.177567 115.554932,82.682945 
	C115.543289,77.152611 115.417534,77.001137 109.933510,75.194214 
	C117.268265,75.194214 124.068886,75.194214 130.869507,75.194214 
	C125.270035,75.247536 125.040421,78.904701 125.114517,83.135689 
	C125.263222,91.627747 125.285835,100.126945 125.104446,108.617729 
	C125.016266,112.745796 126.675209,113.787560 130.699097,114.146744 
	C139.819656,114.960861 144.005890,110.007782 147.076981,102.385307 
	C146.667191,106.688217 146.257416,110.991127 145.780029,116.003708 
	C139.696899,116.003708 133.598953,116.003708 127.001724,116.003708 
z"/>
<path fill="#090909" opacity="1.000000" stroke="none" 
	d="
M354.128784,111.687195 
	C351.197266,105.608421 351.043854,99.792336 353.786469,94.051750 
	C356.223419,88.951035 361.613068,86.123581 366.396484,87.154793 
	C371.630127,88.283081 374.679199,92.773857 374.863098,99.929291 
	C370.073303,99.929291 365.284485,99.929291 360.531219,99.929291 
	C359.539703,109.865829 364.687012,114.636253 372.581085,111.442673 
	C369.750793,118.735550 360.366241,119.033516 354.128784,111.687195 
M365.248871,98.009529 
	C369.599182,98.089600 368.025177,94.812874 367.425964,93.177658 
	C366.828094,91.546173 364.840240,90.424042 363.461761,89.078606 
	C361.915588,91.685867 360.369446,94.293129 358.165192,98.010101 
	C361.417206,98.010101 362.879639,98.010101 365.248871,98.009529 
z"/>
<path fill="#090909" opacity="1.000000" stroke="none" 
	d="
M273.481140,115.858810 
	C265.553375,111.564369 265.510010,98.144180 269.666565,92.410820 
	C272.812592,88.071304 277.856262,86.003517 282.236816,87.389435 
	C287.038391,88.908562 289.586517,92.940315 289.913910,99.951828 
	C284.990540,99.951828 280.075104,99.951828 275.162140,99.951828 
	C275.306183,110.592438 279.959595,114.738007 287.478424,111.366997 
	C285.845276,116.578934 281.158356,118.176842 273.481140,115.858810 
M282.857605,95.662498 
	C282.394440,92.818092 282.707153,88.516479 278.568512,89.300499 
	C274.443390,90.081932 274.942596,94.338493 274.814117,98.846085 
	C277.969574,97.936127 280.408844,97.232697 282.857605,95.662498 
z"/>
<path fill="#0A0A0A" opacity="1.000000" stroke="none" 
	d="
M224.302002,105.164070 
	C227.398239,112.785927 228.806183,113.620865 235.706207,112.264236 
	C233.011658,118.013550 223.858978,118.749222 219.242493,113.587540 
	C214.458832,108.238976 214.443192,96.795914 219.277222,91.339310 
	C222.359009,87.860641 226.168900,86.090134 230.842499,87.348213 
	C235.585938,88.625107 238.027130,92.509232 238.765579,99.849770 
	C233.854904,99.849770 228.974823,99.849770 223.792130,99.849770 
	C223.955261,101.845261 224.074493,103.303925 224.302002,105.164070 
M231.478149,97.352234 
	C231.405441,94.151901 232.206909,89.611481 228.084702,89.300041 
	C223.446777,88.949646 224.018829,93.779900 223.492477,97.026558 
	C223.469788,97.166603 223.568222,97.326286 223.721985,97.877266 
	C226.007217,97.877266 228.420197,97.877266 231.478149,97.352234 
z"/>
<path fill="#0B0B0B" opacity="1.000000" stroke="none" 
	d="
M387.004456,94.502151 
	C389.806030,96.674728 392.448395,98.430367 394.825531,100.491837 
	C398.592041,103.758209 399.310028,108.518570 396.919189,112.637436 
	C394.618622,116.600693 390.706909,117.743080 385.698212,116.204552 
	C384.158569,115.731621 382.416840,115.916634 380.065948,115.750900 
	C380.029175,115.181290 379.889282,113.632858 379.840271,112.081566 
	C379.790161,110.495903 379.829163,108.907425 379.829163,107.078300 
	C381.816101,109.514786 383.212341,112.053680 385.343140,113.538086 
	C386.679199,114.468819 389.119385,113.814590 391.064178,113.871483 
	C390.635468,112.003479 390.764099,109.650803 389.654541,108.374893 
	C387.729218,106.160912 384.935455,104.729752 382.690979,102.759430 
	C378.954529,99.479362 378.135620,94.908882 380.377777,91.080315 
	C382.616211,87.258110 386.577484,86.288216 391.680542,88.034363 
	C392.904572,88.453194 394.393951,88.096558 396.359070,88.096558 
	C396.517090,90.234314 396.741730,93.272972 397.027039,97.132477 
	C394.551666,94.268028 392.819672,91.770630 390.565216,89.904305 
	C389.696320,89.184990 387.640015,89.900017 386.124695,89.961540 
	C386.325226,91.381828 386.525726,92.802116 387.004456,94.502151 
z"/>
<path fill="#050505" opacity="1.000000" stroke="none" 
	d="
M300.977844,87.992554 
	C302.576965,88.043732 303.725372,88.094910 304.997589,88.151596 
	C305.102844,89.710815 305.198547,91.128838 305.311615,92.804123 
	C307.659302,90.892143 309.564331,88.806778 311.923523,87.638786 
	C313.149963,87.031586 315.917969,87.490997 316.651245,88.470505 
	C317.502991,89.608223 317.502380,92.242500 316.705627,93.470825 
	C316.120422,94.373062 313.154938,94.820953 312.126678,94.142654 
	C308.994995,92.076782 306.887604,93.467918 306.468048,96.114807 
	C305.619659,101.466713 305.464813,106.957733 305.466461,112.391258 
	C305.466797,113.514862 307.394958,114.637886 308.519073,115.852463 
	C303.817566,115.852463 299.123871,115.852463 294.332245,115.852463 
	C297.950073,111.821449 297.948669,92.067429 293.950195,87.992554 
	C296.441406,87.992554 298.484253,87.992554 300.977844,87.992554 
z"/>
<path fill="#0C0C0C" opacity="1.000000" stroke="none" 
	d="
M253.719635,89.149933 
	C252.197876,89.789772 250.676102,90.429604 249.154312,91.069427 
	C249.934555,92.408630 250.456863,94.030464 251.549362,95.027519 
	C253.745209,97.031570 256.368286,98.562622 258.604706,100.528214 
	C262.434967,103.894646 263.128143,108.460602 260.690460,112.648354 
	C258.403046,116.577950 254.448669,117.732361 249.471375,116.193840 
	C247.958313,115.726143 246.252258,115.882767 243.895981,115.694389 
	C243.757980,113.656029 243.548157,110.556816 243.313217,107.086700 
	C245.675262,109.679153 247.473969,112.208977 249.836868,113.990463 
	C250.873199,114.771782 253.060593,114.026360 254.725327,113.974197 
	C254.474762,112.197044 254.841553,109.862595 253.845108,108.758751 
	C251.769775,106.459709 248.848083,104.952179 246.502472,102.863091 
	C243.083801,99.818283 241.708008,96.016235 243.918930,91.701653 
	C246.117523,87.411148 249.680115,85.975929 254.501633,88.101624 
	C254.357086,88.756378 254.038361,88.953156 253.719635,89.149933 
z"/>
<path fill="#030303" opacity="1.000000" stroke="none" 
	d="
M203.033295,94.079422 
	C199.587585,102.005951 200.092133,112.626228 204.332321,115.796295 
	C199.521988,115.796295 194.981415,115.796295 190.461487,115.796295 
	C193.612717,111.380974 193.478119,92.377304 190.117126,88.155930 
	C193.658493,88.155930 197.073944,88.155930 200.783875,88.155930 
	C200.936615,89.777222 201.085464,91.357224 201.877136,93.111023 
	C202.761322,93.504288 202.932434,93.769150 203.033295,94.079422 
z"/>
<path fill="#080808" opacity="1.000000" stroke="none" 
	d="
M340.177979,103.401100 
	C338.398987,107.965996 336.619995,112.530884 334.300110,118.483696 
	C329.368561,107.477760 325.009094,97.748611 320.724243,88.185913 
	C324.416199,88.185913 328.989532,88.185913 333.043091,88.185913 
	C329.394257,94.882736 336.078278,99.273750 336.918976,106.023560 
	C337.923645,104.241203 338.369110,103.450920 339.216797,102.522476 
	C339.805328,102.723236 339.991638,103.062164 340.177979,103.401100 
z"/>
<path fill="#0B0B0B" opacity="1.000000" stroke="none" 
	d="
M203.364502,93.940720 
	C202.932434,93.769150 202.761322,93.504288 202.314178,93.164154 
	C203.894485,91.214096 205.444641,88.995270 207.561920,87.712547 
	C208.693375,87.027077 211.747620,87.407150 212.256180,88.281876 
	C213.077164,89.693954 213.016724,92.141296 212.311478,93.687477 
	C211.981094,94.411835 209.278229,94.143646 207.649109,94.157883 
	C206.332443,94.169388 205.013580,93.930069 203.364502,93.940720 
z"/>
<path fill="#171717" opacity="1.000000" stroke="none" 
	d="
M340.464172,103.178482 
	C339.991638,103.062164 339.805328,102.723236 339.387024,102.208817 
	C340.086884,99.417664 341.328400,96.861160 341.843262,94.165840 
	C342.194672,92.326363 341.531219,90.293037 341.301941,88.164581 
	C342.889648,88.164581 345.556091,88.164581 347.469727,88.164581 
	C345.267517,93.012268 343.008942,97.984062 340.464172,103.178482 
z"/>
<path fill="#282828" opacity="1.000000" stroke="none" 
	d="
M253.929047,89.425385 
	C254.038361,88.953156 254.357086,88.756378 254.819962,88.318039 
	C256.448181,88.076477 257.932281,88.076477 260.181061,88.076477 
	C260.289276,90.250572 260.443848,93.356163 260.626312,97.022057 
	C258.108856,94.181229 256.123657,91.941032 253.929047,89.425385 
z"/>
<path fill="#F2F2F2" opacity="1.000000" stroke="none" 
	d="
M166.148407,93.488884 
	C166.132294,87.764763 166.132294,82.494873 166.132294,77.240356 
	C173.029358,77.088928 175.303284,79.451889 175.217514,86.235535 
	C175.141571,92.241501 172.546936,95.242210 167.582718,94.949715 
	C167.091919,94.920799 166.636414,94.292961 166.148407,93.488884 
z"/>
<path fill="#F1F1F1" opacity="1.000000" stroke="none" 
	d="
M364.795471,98.009811 
	C362.879639,98.010101 361.417206,98.010101 358.165192,98.010101 
	C360.369446,94.293129 361.915588,91.685867 363.461761,89.078606 
	C364.840240,90.424042 366.828094,91.546173 367.425964,93.177658 
	C368.025177,94.812874 369.599182,98.089600 364.795471,98.009811 
z"/>
<path fill="#F1F1F1" opacity="1.000000" stroke="none" 
	d="
M282.852844,96.095886 
	C280.408844,97.232697 277.969574,97.936127 274.814117,98.846085 
	C274.942596,94.338493 274.443390,90.081932 278.568512,89.300499 
	C282.707153,88.516479 282.394440,92.818092 282.852844,96.095886 
z"/>
<path fill="#EEEEEE" opacity="1.000000" stroke="none" 
	d="
M231.155655,97.614746 
	C228.420197,97.877266 226.007217,97.877266 223.721985,97.877266 
	C223.568222,97.326286 223.469788,97.166603 223.492477,97.026558 
	C224.018829,93.779900 223.446777,88.949646 228.084702,89.300041 
	C232.206909,89.611481 231.405441,94.151901 231.155655,97.614746 
z"/>
</svg>